<svg xmlns="http://www.w3.org/2000/svg" width="16" height="16" fill="none"><g fill="#666"><path d="M8 0a8 8 0 1 0 0 16A8 8 0 0 0 8 0ZM1 8a7 7 0 0 1 7-7 7 7 0 0 1 7 7 7 7 0 0 1-7 7 7 7 0 0 1-7-7Z"/><path d="M11.7 3c-.5-.3-1-.5-1.6-.7.6 1 1 2.2 1.1 3.5h2.5c-.2-1.1-.6-2.1-1.2-2.8h-.8ZM8 1.1c-.5 0-1 .1-1.5.2.9.9 1.6 2.1 2 3.5h2.3c-.4-1.8-1.5-3.3-2.8-3.7Zm-2.7.1C4.3 1.7 3.5 2.4 2.8 3.2c-.1.1-.2.2-.2.3h.7c.5-.3 1-.5 1.5-.7.6 1 1 2.2 1.1 3.5H3.5c.2-1.1.6-2.1 1.1-2.8h-.5c-.7.9-1.1 2-1.3 3.1H.3c.1-1 .4-2 .9-2.8-.1.1-.1.2-.2.2-.5.8-.8 1.7-1 2.6v.5c0 .2 0 .4.1.6.1.7.3 1.3.5 1.9.7 1.6 2 2.9 3.5 3.6.5.2 1 .4 1.5.5h.2c.4.1.8.1 1.2.1.4 0 .9 0 1.3-.1.5-.1 1-.2 1.4-.4 1.6-.6 3-1.9 3.7-3.5.3-.6.5-1.3.6-2v-.3-.3c0-.3-.1-.6-.1-.9-.2-1-.5-1.9-1-2.7v-.1c-.9-1.3-2.1-2.3-3.5-2.8-.5-.2-1.1-.4-1.6-.4-.2 0-.5-.1-.7-.1-.5 0-.9.1-1.3.1Zm.7.7c-.8.2-1.5.7-2.1 1.4-.7.8-1.2 1.8-1.4 3h2.3c.1-1.6.5-3.1 1.2-4.4Zm-.2 11c-.5-.3-1-.5-1.5-.8.6-1 1-2.2 1.1-3.5H3.1c.2 1.1.6 2.1 1.1 2.8.4.6.9 1.1 1.5 1.5h.1Zm2.2.7c.5 0 1-.1 1.5-.2-.9-.9-1.6-2.1-2-3.5H4.3c.4 1.7 1.4 3.2 2.7 3.7.3 0 .7.1 1 0Zm2.7-.1c1-.5 1.8-1.2 2.5-2h-.6c-.5.3-1 .5-1.5.7-.6-1-1-2.2-1.1-3.5h2.3c-.2 1.1-.6 2.1-1.1 2.8h.4c.7-.9 1.2-2 1.4-3.1h2.5c-.2 1-.5 2-.9 2.8.1-.1.1-.2.2-.3.4-.7.7-1.5.9-2.3v-.3c.1-.3.1-.6.1-.9v-.4c0-.3-.1-.6-.1-.9h-2.5c0 1.3-.4 2.5-1 3.5.5-.2 1-.5 1.4-.8h.7c-.7.9-1.5 1.6-2.5 2.1-.5.2-1 .4-1.5.5h-.1c.5.1 1 .1 1.5 0v.1Z"/></g></svg>
