<svg xmlns="http://www.w3.org/2000/svg" fill="none" viewBox="0 0 283 64"><path fill="black" d="M141 16c-11 0-19 7-19 18s9 18 20 18c7 0 13-3 16-7l-7-5c-2 3-6 4-9 4-5 0-9-3-10-7h28v-3c0-11-8-18-19-18Zm-9 15c1-4 4-7 9-7s8 3 9 7h-18Zm117-15c-11 0-19 7-19 18s9 18 20 18c7 0 13-3 16-7l-7-5c-2 3-6 4-9 4-5 0-9-3-10-7h28v-3c0-11-8-18-19-18Zm-9 15c1-4 4-7 9-7s8 3 9 7h-18Zm-39 3c0 6 4 10 10 10 4 0 7-2 8-5l7 4c-3 6-9 9-15 9-11 0-19-7-19-18s8-18 19-18c6 0 12 3 15 9l-7 4c-1-3-4-5-8-5-6 0-10 4-10 10Zm83-28v46h-9V6h9Zm-52 28c0 6 4 10 10 10 4 0 7-2 8-5l7 4c-3 6-9 9-15 9-11 0-19-7-19-18s8-18 19-18c6 0 12 3 15 9l-7 4c-1-3-4-5-8-5-6 0-10 4-10 10Zm-24 18v-46h9v46h-9Zm141.5 0h-9V34h-9.5v-8h9.5V17h9v9h9.5v8h-9.5v18Zm-40 0h-9V24h9v28Zm31.5-28h9v28h-9v-4.5c-2 3-6 5-10 5-9 0-16-7-16-18s7-18 16-18c4 0 8 2 10 5V24Zm-10 22c5 0 10-4 10-10s-5-10-10-10-10 4-10 10 5 10 10 10Zm-38 6h9V0h-9v52ZM41 0h-9v52h9V0Zm-13 52V25h-9v27h9Zm-28 0v-9.5H9V52H0ZM9 41.5c0-5 4-9.5 9.5-9.5 5 0 9.5 4.5 9.5 9.5v1.5H9v-1.5Zm35.4-17.6c-3.8-3.8-8.8-5.6-14.8-5.4v8.1c4.4-.2 8 1 10.6 3.6 2.5 2.5 3.8 6.2 3.6 10.6h8.1c.2-6-.2-11-5.5-16.9ZM141.5 1c-5 0-9 4-9 9s4 9 9 9 9-4 9-9-4-9-9-9Z"/></svg>
